<svg xmlns="http://www.w3.org/2000/svg"
    xmlns:xlink="http://www.w3.org/1999/xlink" viewBox="0 0 1024 648">
    <defs>
        <clipPath id="clip-path">
            <rect x="818.12" y="571" width="146" height="48" style="fill:none"/>
        </clipPath>
        <clipPath id="clip-path-3">
            <rect x="59.88" y="34" width="146" height="48" style="fill:none"/>
        </clipPath>
        <clipPath id="clip-path-5">
            <rect x="326" y="360" width="146" height="48" style="fill:none"/>
        </clipPath>
        <clipPath id="clip-path-7">
            <rect x="552" y="360" width="146" height="48" style="fill:none"/>
        </clipPath>
    </defs>
    <g id="grid">
        <path d="M764,65V569H260V65H764m0-4H260a4,4,0,0,0-4,4V569a4,4,0,0,0,4,4H764a4,4,0,0,0,4-4V65a4,4,0,0,0-4-4Z" style="fill:#ccc"/>
        <g id="再開">
            <g style="clip-path:url(#clip-path)">
                <g style="clip-path:url(#clip-path)">
                    <path d="M950.12,619h-118a14,14,0,0,1-14-14V589a14,14,0,0,1,14-14h118a14,14,0,0,1,14,14v16a14,14,0,0,1-14,14" style="fill:#ccc"/>
                    <rect x="819.62" y="572.5" width="143" height="41" rx="12.5" style="fill:#fafafa"/>
                    <path d="M950.12,574a11,11,0,0,1,11,11v16a11,11,0,0,1-11,11h-118a11,11,0,0,1-11-11V585a11,11,0,0,1,11-11h118m0-3h-118a14,14,0,0,0-14,14v16a14,14,0,0,0,14,14h118a14,14,0,0,0,14-14V585a14,14,0,0,0-14-14Z" style="fill:#0b89dd"/>
                    <path d="M851.34,587.65l-7.88,7.88-3.67-3.68-2.63,2.63,6.3,6.3,10.5-10.5Z" style="fill:#0b89dd"/>
                </g>
                <text transform="translate(876.12 599.98)" style="font-size:18px;fill:#0b89dd;font-family:rounded-l-mplus-1c-medium, 'Rounded-L M+ 1c';font-weight:500;letter-spacing:0.22200520833333334em">決定</text>
            </g>
        </g>
        <g id="最初に戻る">
            <g style="clip-path:url(#clip-path-3)">
                <g style="clip-path:url(#clip-path-3)">
                    <path d="M191.88,82h-118a14,14,0,0,1-14-14V52a14,14,0,0,1,14-14h118a14,14,0,0,1,14,14V68a14,14,0,0,1-14,14" style="fill:#ccc"/>
                    <rect x="61.38" y="35.5" width="143" height="41" rx="12.5" style="fill:#fafafa"/>
                    <path d="M191.88,37a11,11,0,0,1,11,11V64a11,11,0,0,1-11,11h-118a11,11,0,0,1-11-11V48a11,11,0,0,1,11-11h118m0-3h-118a14,14,0,0,0-14,14V64a14,14,0,0,0,14,14h118a14,14,0,0,0,14-14V48a14,14,0,0,0-14-14Z" style="fill:#0b89dd"/>
                    <path d="M92.67,53l-8.82-4.41L75,53l8.82,4.41Zm-1.76,2.43,1.76.88L83.85,60.7,75,56.29l1.77-.88,7,3.52Zm0,3.3,1.76.89L83.85,64,75,59.6l1.77-.89,7,3.53Z" style="fill:#0b89dd"/>
                </g>
                <text transform="translate(99.38 62.98)" style="font-size:18px;fill:#0b89dd;font-family:rounded-l-mplus-1c-medium, 'Rounded-L M+ 1c';font-weight:500">一覧を表示</text>
            </g>
        </g>
        <polygon points="897.11 385.81 897.11 379.81 885.11 379.81 885.11 385.81 865.61 385.81 865.61 391.81 867.11 391.81 871.11 438.81 872.11 438.81 872.11 444.81 910.11 444.81 910.11 438.81 911.11 438.81 915.11 391.81 916.61 391.81 916.61 385.81 897.11 385.81" style="fill:#fafafa"/>
        <rect x="885.11" y="379.8" width="12" height="6" style="fill:none;stroke:#0b89dd;stroke-linejoin:round;stroke-width:3px"/>
        <rect x="865.61" y="385.8" width="51" height="6" style="fill:none;stroke:#0b89dd;stroke-linejoin:round;stroke-width:3px"/>
        <polygon points="915.11 391.81 911.11 438.81 910.61 438.81 910.11 438.81 910.11 441.81 910.11 444.81 872.11 444.81 872.11 441.81 872.11 438.81 871.61 438.81 871.11 438.81 867.11 391.81 915.11 391.81" style="fill:none;stroke:#0b89dd;stroke-linejoin:round;stroke-width:3px"/>
        <line x1="910.11" y1="438.8" x2="872.11" y2="438.8" style="fill:none;stroke:#0b89dd;stroke-linejoin:round"/>
        <line x1="891.12" y1="432.03" x2="891.12" y2="400.03" style="fill:none;stroke:#0b89dd;stroke-linecap:round;stroke-linejoin:round"/>
        <line x1="880.91" y1="432.05" x2="878.88" y2="400.05" style="fill:none;stroke:#0b89dd;stroke-linecap:round;stroke-linejoin:round"/>
        <line x1="901.34" y1="432.05" x2="903.37" y2="400.05" style="fill:none;stroke:#0b89dd;stroke-linecap:round;stroke-linejoin:round"/>
        <line x1="867.11" y1="391.8" x2="915.11" y2="391.8" style="fill:none;stroke:#0b89dd;stroke-linejoin:round;stroke-width:3px"/>
        <rect x="841.12" y="500" width="100" height="27" style="fill:none"/>
        <text transform="translate(881.12 520.48)" style="font-size:18px;font-family:rounded-mplus-1p-medium, 'Rounded M+ 1p';font-weight:500">格子線</text>
        <path d="M863.12,503.26a2,2,0,0,1,2,2v16.48a2,2,0,0,1-2,2h-17a2,2,0,0,1-2-2V505.26a2,2,0,0,1,2-2h17m0-3h-17a5,5,0,0,0-5,5v16.48a5,5,0,0,0,5,5h17a5,5,0,0,0,5-5V505.26a5,5,0,0,0-5-5Z" style="fill:#0b89dd"/>
        <path d="M576.31,588.16a14.37,14.37,0,0,1,8.13,7.45l5.4-2.53-3.69,10.15L576,599.54l5.17-2.41a10.8,10.8,0,1,0-19.27,9.73l-3.16,1.72a14.4,14.4,0,0,1,17.57-20.42Z" style="fill:#b3b3b3;stroke:#b3b3b3;stroke-miterlimit:10;stroke-width:2px"/>
        <rect x="552" y="580" width="40" height="40" transform="translate(1144 1200) rotate(-180)" style="fill:none"/>
        <path d="M447.69,588.16a14.37,14.37,0,0,0-8.13,7.45l-5.4-2.53,3.69,10.15L448,599.54l-5.17-2.41a10.8,10.8,0,1,1,19.27,9.73l3.16,1.72a14.4,14.4,0,0,0-17.57-20.42Z" style="fill:#b3b3b3;stroke:#b3b3b3;stroke-miterlimit:10;stroke-width:2px"/>
        <rect x="432" y="580" width="40" height="40" style="fill:none"/>
        <g style="opacity:0.7000000000000001">
            <rect width="1024" height="648"/>
        </g>
        <polyline points="764 418.13 720.69 415.38 620.03 473.07 537.75 508.61 559.18 464.58 616.55 381.01 564.43 314.07 476.93 248.69 644.67 244.38 692.47 178.76 764 123.99" style="fill:none;stroke:#005aff;stroke-linejoin:round;stroke-width:4px"/>
    </g>
    <g id="shape">
        <line x1="766" y1="569" x2="766" y2="65" style="fill:none;stroke:#000;stroke-miterlimit:10;stroke-width:4px"/>
    </g>
    <g id="buttons">
        <rect x="194" y="174" width="636" height="286" style="fill:#fafafa"/>
        <path d="M828,176V458H196V176H828m4-4H192V462H832V172Z" style="fill:#0b89dd"/>
        <g id="再開-2" data-name="再開">
            <g style="clip-path:url(#clip-path-5)">
                <g style="clip-path:url(#clip-path-5)">
                    <path d="M458,408H340a14,14,0,0,1-14-14V378a14,14,0,0,1,14-14H458a14,14,0,0,1,14,14v16a14,14,0,0,1-14,14" style="fill:#ccc"/>
                    <rect x="327.5" y="361.5" width="143" height="41" rx="12.5" style="fill:#fafafa"/>
                    <path d="M458,363a11,11,0,0,1,11,11v16a11,11,0,0,1-11,11H340a11,11,0,0,1-11-11V374a11,11,0,0,1,11-11H458m0-3H340a14,14,0,0,0-14,14v16a14,14,0,0,0,14,14H458a14,14,0,0,0,14-14V374a14,14,0,0,0-14-14Z" style="fill:#0b89dd"/>
                </g>
                <text transform="translate(379 388.98)" style="font-size:18px;fill:#0b89dd;font-family:rounded-l-mplus-1c-medium, 'Rounded-L M+ 1c';font-weight:500;letter-spacing:0.22200520833333334em">はい</text>
            </g>
        </g>
        <g id="再開-3" data-name="再開">
            <g style="clip-path:url(#clip-path-7)">
                <g style="clip-path:url(#clip-path-7)">
                    <path d="M684,408H566a14,14,0,0,1-14-14V378a14,14,0,0,1,14-14H684a14,14,0,0,1,14,14v16a14,14,0,0,1-14,14" style="fill:#ccc"/>
                    <rect x="553.5" y="361.5" width="143" height="41" rx="12.5" style="fill:#fafafa"/>
                    <path d="M684,363a11,11,0,0,1,11,11v16a11,11,0,0,1-11,11H566a11,11,0,0,1-11-11V374a11,11,0,0,1,11-11H684m0-3H566a14,14,0,0,0-14,14v16a14,14,0,0,0,14,14H684a14,14,0,0,0,14-14V374a14,14,0,0,0-14-14Z" style="fill:#0b89dd"/>
                </g>
                <text transform="translate(598 388.98)" style="font-size:18px;fill:#0b89dd;font-family:rounded-l-mplus-1c-medium, 'Rounded-L M+ 1c';font-weight:500">いいえ</text>
            </g>
        </g>
        <text transform="translate(322 283.16)" style="font-size:36px;fill:#0b89dd;font-family:rounded-mplus-1p-bold, 'Rounded M+ 1p';font-weight:700">格子線表示            <tspan x="180" y="0" style="font-size:25px">を切り替えると、</tspan>
            <tspan style="font-size:25px">
                <tspan x="-85" y="43.54">書き込み情報が削除されますがよろしいですか？</tspan>
            </tspan>
        </text>
    </g>
</svg>