<svg xmlns="http://www.w3.org/2000/svg" viewBox="0 0 1024 648"><g id="grid"><rect x="36" y="438" width="180" height="180" rx="8" style="fill:#ccc"/><rect x="231" y="438" width="180" height="180" rx="8" style="fill:#ccc"/><rect x="426" y="438" width="180" height="180" rx="8" style="fill:#ccc"/><rect x="621" y="438" width="180" height="180" rx="8" style="fill:#ccc"/><rect x="816" y="438" width="180" height="180" rx="8" style="fill:#ccc"/><rect x="36" y="238" width="180" height="180" rx="8" style="fill:#ccc"/><rect x="231" y="238" width="180" height="180" rx="8" style="fill:#ccc"/><rect x="426" y="238" width="180" height="180" rx="8" style="fill:#ccc"/><rect x="621" y="238" width="180" height="180" rx="8" style="fill:#ccc"/><rect x="816" y="238" width="180" height="180" rx="8" style="fill:#ccc"/><rect x="36" y="38" width="180" height="180" rx="8" style="fill:#ccc"/><rect x="231" y="38" width="180" height="180" rx="8" style="fill:#ccc"/><rect x="426" y="38" width="180" height="180" rx="8" style="fill:#ccc"/><rect x="621" y="38" width="180" height="180" rx="8" style="fill:#ccc"/><rect x="816" y="38" width="180" height="180" rx="8" style="fill:#ccc"/><rect x="32" y="434" width="180" height="180" rx="8" style="fill:#fffccc"/><path d="M40,434a8,8,0,0,0-8,8v44H47a36.94,36.94,0,0,0,36.75-37V434Z" style="fill:#f6aa00"/><rect x="227" y="434" width="180" height="180" rx="8" style="fill:#fffccc"/><path d="M235,434a8,8,0,0,0-8,8v44h15a36.94,36.94,0,0,0,36.75-37V434Z" style="fill:#f6aa00"/><rect x="422" y="434" width="180" height="180" rx="8" style="fill:#fffccc"/><path d="M430,434a8,8,0,0,0-8,8v44h15a36.94,36.94,0,0,0,36.75-37V434Z" style="fill:#f6aa00"/><rect x="617" y="434" width="180" height="180" rx="8" style="fill:#fff999"/><path d="M625,434a8,8,0,0,0-8,8v44h15a36.94,36.94,0,0,0,36.75-37V434Z" style="fill:#f6aa00"/><rect x="812" y="434" width="180" height="180" rx="8" style="fill:#fff999"/><path d="M820,434a8,8,0,0,0-8,8v44h15a36.94,36.94,0,0,0,36.75-37V434Z" style="fill:#f6aa00"/><rect x="32" y="234" width="180" height="180" rx="8" style="fill:#fffccc"/><path d="M40,234a8,8,0,0,0-8,8v44H47a36.94,36.94,0,0,0,36.75-37V234Z" style="fill:#f6aa00"/><rect x="227" y="234" width="180" height="180" rx="8" style="fill:#fffccc"/><path d="M235,234a8,8,0,0,0-8,8v44h15a36.94,36.94,0,0,0,36.75-37V234Z" style="fill:#f6aa00"/><rect x="422" y="234" width="180" height="180" rx="8" style="fill:#fffccc"/><path d="M430,234a8,8,0,0,0-8,8v44h15a36.94,36.94,0,0,0,36.75-37V234Z" style="fill:#f6aa00"/><rect x="617" y="234" width="180" height="180" rx="8" style="fill:#fffccc"/><path d="M625,234a8,8,0,0,0-8,8v44h15a36.94,36.94,0,0,0,36.75-37V234Z" style="fill:#f6aa00"/><rect x="812" y="234" width="180" height="180" rx="8" style="fill:#fffccc"/><path d="M820,234a8,8,0,0,0-8,8v44h15a36.94,36.94,0,0,0,36.75-37V234Z" style="fill:#f6aa00"/><rect x="32" y="34" width="180" height="180" rx="8" style="fill:#fffccc"/><path d="M40,34a8,8,0,0,0-8,8V86H47A36.94,36.94,0,0,0,83.75,49V34Z" style="fill:#f6aa00"/><rect x="227" y="34" width="180" height="180" rx="8" style="fill:#fffccc"/><path d="M235,34a8,8,0,0,0-8,8V86h15a36.94,36.94,0,0,0,36.75-37V34Z" style="fill:#f6aa00"/><rect x="422" y="34" width="180" height="180" rx="8" style="fill:#fffccc"/><path d="M430,34a8,8,0,0,0-8,8V86h15a36.94,36.94,0,0,0,36.75-37V34Z" style="fill:#f6aa00"/><rect x="617" y="34" width="180" height="180" rx="8" style="fill:#fffccc"/><path d="M625,34a8,8,0,0,0-8,8V86h15a36.94,36.94,0,0,0,36.75-37V34Z" style="fill:#f6aa00"/><rect x="812" y="34" width="180" height="180" rx="8" style="fill:#fffccc"/><path d="M820,34a8,8,0,0,0-8,8V86h15a36.94,36.94,0,0,0,36.75-37V34Z" style="fill:#f6aa00"/></g><g id="shape"><path d="M156,473.69a45,45,0,0,0-45,45l45,67.5" style="fill:#bfe4ff;stroke:#005aff;stroke-linejoin:round;stroke-width:2px"/><polyline points="730.75 381.67 663.25 381.67 663.25 318.67 730.75 282.67" style="fill:#bfe4ff;stroke:#005aff;stroke-linejoin:round;stroke-width:2px"/><polyline points="731.68 78.78 680.98 166.61 731.68 195.89" style="fill:#bfe4ff;stroke:#005aff;stroke-linejoin:round;stroke-width:2px"/><path d="M539.75,186.83a49.5,49.5,0,1,1,0-99" style="fill:#bfe4ff;stroke:#005aff;stroke-linejoin:round;stroke-width:2px"/><polyline points="155.35 176.48 98.65 176.48 98.65 98.18 155.35 98.18" style="fill:#bfe4ff;stroke:#005aff;stroke-linejoin:round;stroke-width:2px"/><line x1="155.35" y1="204.83" x2="155.35" y2="69.83" style="fill:none;stroke:#000;stroke-miterlimit:10;stroke-width:2px"/><polyline points="347.35 171.98 290.65 171.98 347.35 93.68" style="fill:#bfe4ff;stroke:#005aff;stroke-linejoin:round;stroke-width:2px"/><polyline points="923.35 285.01 866.65 285.01 923.35 379.51" style="fill:#bfe4ff;stroke:#005aff;stroke-linejoin:round;stroke-width:2px"/><polyline points="539.55 386.17 486.45 386.17 539.55 310.57" style="fill:#bfe4ff;stroke:#005aff;stroke-linejoin:round;stroke-width:2px"/><line x1="347.35" y1="204.83" x2="347.35" y2="69.83" style="fill:none;stroke:#000;stroke-miterlimit:10;stroke-width:2px"/><line x1="539.75" y1="204.83" x2="539.75" y2="69.83" style="fill:none;stroke:#000;stroke-miterlimit:10;stroke-width:2px"/><line x1="731.68" y1="204.83" x2="731.68" y2="69.83" style="fill:none;stroke:#000;stroke-miterlimit:10;stroke-width:2px"/><polyline points="923.65 190.6 872.35 190.6 898.45 89.8 923.65 89.8" style="fill:#bfe4ff;stroke:#005aff;stroke-linejoin:round;stroke-width:2px"/><line x1="923.65" y1="204.83" x2="923.65" y2="69.83" style="fill:none;stroke:#000;stroke-miterlimit:10;stroke-width:2px"/><polyline points="155.65 381.67 104.35 381.67 104.35 282.67 131.35 282.67 155.65 309.67" style="fill:#bfe4ff;stroke:#005aff;stroke-linejoin:round;stroke-width:2px"/><rect x="296.35" y="282.67" width="37.8" height="99" style="fill:#bfe4ff;stroke:#005aff;stroke-linejoin:round;stroke-width:2px"/><rect x="283.65" y="482.5" width="65.7" height="99" style="fill:#bfe4ff;stroke:#005aff;stroke-linejoin:round;stroke-width:2px"/><line x1="155.65" y1="399.67" x2="155.65" y2="264.67" style="fill:none;stroke:#000;stroke-miterlimit:10;stroke-width:2px"/><line x1="347.65" y1="399.67" x2="347.65" y2="264.67" style="fill:none;stroke:#000;stroke-miterlimit:10;stroke-width:2px"/><line x1="730.75" y1="399.67" x2="730.75" y2="264.67" style="fill:none;stroke:#000;stroke-miterlimit:10;stroke-width:2px"/><line x1="923.35" y1="399.67" x2="923.35" y2="264.67" style="fill:none;stroke:#000;stroke-miterlimit:10;stroke-width:2px"/><line x1="156" y1="599.5" x2="156" y2="464.5" style="fill:none;stroke:#000;stroke-miterlimit:10;stroke-width:2px"/><line x1="361.3" y1="599.5" x2="271.7" y2="464.5" style="fill:none;stroke:#000;stroke-miterlimit:10;stroke-width:2px"/><line x1="538.25" y1="599.5" x2="538.25" y2="464.5" style="fill:none;stroke:#000;stroke-miterlimit:10;stroke-width:2px"/><polyline points="539.55 310.57 506.25 285.37 539.55 285.37" style="fill:#bfe4ff;stroke:#005aff;stroke-linejoin:round;stroke-width:2px"/><line x1="539.55" y1="399.67" x2="539.55" y2="264.67" style="fill:none;stroke:#000;stroke-miterlimit:10;stroke-width:2px"/><circle cx="486.05" cy="532" r="24.3" style="fill:#bfe4ff;stroke:#005aff;stroke-linejoin:round;stroke-width:2px"/></g><g id="buttons"><circle cx="778.5" cy="590" r="14" style="fill:#0b89dd"/><path d="M777.1,591.7l2.31-1.16,8.11-8.1-1.16-1.16-8.1,8.1Zm-1.72,4.1a4.41,4.41,0,0,0-2.39-2.39l1.79-4.94,2.32-1.4,6.94-7h-3.47l-7,7-3.47,11.57,11.58-3.47,6.94-6.95v-3.47l-6.94,7L780.32,594Z" style="fill:#fafafa"/><circle cx="970.5" cy="590" r="14" style="fill:#0b89dd"/><path d="M969.1,591.7l2.31-1.16,8.11-8.1-1.16-1.16-8.1,8.1Zm-1.72,4.1a4.41,4.41,0,0,0-2.39-2.39l1.79-4.94,2.32-1.4,6.94-7h-3.47l-7,7-3.47,11.57,11.58-3.47,6.94-6.95v-3.47l-6.94,7L972.32,594Z" style="fill:#fafafa"/></g><g id="text"><text transform="translate(43.5 68.88)" style="font-size:26px;fill:#fff;font-family:HiraKakuPro-W6, HiraKakuPro W6-83pv-RKSJ-H">ア</text><text transform="translate(238.5 68.88)" style="font-size:26px;fill:#fff;font-family:HiraKakuPro-W6, HiraKakuPro W6-83pv-RKSJ-H">イ</text><text transform="translate(433.5 68.88)" style="font-size:26px;fill:#fff;font-family:HiraKakuPro-W6, HiraKakuPro W6-83pv-RKSJ-H">ウ</text><text transform="translate(628.5 68.88)" style="font-size:26px;fill:#fff;font-family:HiraKakuPro-W6, HiraKakuPro W6-83pv-RKSJ-H">エ</text><text transform="translate(823.5 68.88)" style="font-size:26px;fill:#fff;font-family:HiraKakuPro-W6, HiraKakuPro W6-83pv-RKSJ-H">オ</text><text transform="translate(238.5 268.88)" style="font-size:26px;fill:#fff;font-family:HiraKakuPro-W6, HiraKakuPro W6-83pv-RKSJ-H">キ</text><text transform="translate(433.5 268.88)" style="font-size:26px;fill:#fff;font-family:HiraKakuPro-W6, HiraKakuPro W6-83pv-RKSJ-H">ク</text><text transform="translate(628.5 268.88)" style="font-size:26px;fill:#fff;font-family:HiraKakuPro-W6, HiraKakuPro W6-83pv-RKSJ-H">ケ</text><text transform="translate(823.5 268.88)" style="font-size:26px;fill:#fff;font-family:HiraKakuPro-W6, HiraKakuPro W6-83pv-RKSJ-H">コ</text><text transform="translate(43.5 268.88)" style="font-size:26px;fill:#fff;font-family:HiraKakuPro-W6, HiraKakuPro W6-83pv-RKSJ-H">カ</text><text transform="translate(238.5 468.88)" style="font-size:26px;fill:#fff;font-family:HiraKakuPro-W6, HiraKakuPro W6-83pv-RKSJ-H">シ</text><text transform="translate(433.5 468.88)" style="font-size:26px;fill:#fff;font-family:HiraKakuPro-W6, HiraKakuPro W6-83pv-RKSJ-H">ス</text><text transform="translate(628.5 468.88)" style="font-size:26px;fill:#fff;font-family:HiraKakuPro-W6, HiraKakuPro W6-83pv-RKSJ-H">セ</text><text transform="translate(823.5 468.88)" style="font-size:26px;fill:#fff;font-family:HiraKakuPro-W6, HiraKakuPro W6-83pv-RKSJ-H">ソ</text><text transform="translate(43.5 468.88)" style="font-size:26px;fill:#fff;font-family:HiraKakuPro-W6, HiraKakuPro W6-83pv-RKSJ-H">サ</text><text transform="translate(849.5 537)" style="font-size:22px;font-family:HiraKakuPro-W6, HiraKakuPro W6-83pv-RKSJ-H">新しく作成</text><text transform="translate(654.5 537)" style="font-size:22px;font-family:HiraKakuPro-W6, HiraKakuPro W6-83pv-RKSJ-H">新しく作成</text></g></svg>