<svg xmlns="http://www.w3.org/2000/svg" width="100" height="27" viewBox="0 0 100 27">
  <defs>
    <style>
      .cls-1, .cls-3 {
        fill: none;
      }

      .cls-2 {
        fill: #0b89dd;
      }

      .cls-3 {
        stroke: #0b89dd;
        stroke-miterlimit: 10;
        stroke-width: 4px;
      }

      .cls-4 {
        font-size: 18px;
        font-family: rounded-mplus-1p-medium, rounded mplus-1p-medium;
        font-weight: 500;
      }
    </style>
  </defs>
  <title>cbox-grid</title>
  <g id="Layer_2" data-name="Layer 2">
    <g id="buttons">
      <g>
        <rect class="cls-1" width="100" height="27"/>
        <path class="cls-2" d="M22,3.26a2,2,0,0,1,2,2V21.74a2,2,0,0,1-2,2H5a2,2,0,0,1-2-2V5.26a2,2,0,0,1,2-2H22m0-3H5a5,5,0,0,0-5,5V21.74a5,5,0,0,0,5,5H22a5,5,0,0,0,5-5V5.26a5,5,0,0,0-5-5Z"/>
        <polyline class="cls-3" points="6.45 9.6 11.28 17.6 21.09 7.15"/>
        <text class="cls-4" transform="translate(40 20.48)">格子線</text>
      </g>
    </g>
  </g>
</svg>
