<svg xmlns="http://www.w3.org/2000/svg" width="528.76" height="559" viewBox="0 0 528.76 559">
  <defs>
    <style>
      .cls-1, .cls-3, .cls-5 {
        fill: none;
      }

      .cls-1 {
        stroke: #4dc4ff;
      }

      .cls-1, .cls-3, .cls-4 {
        stroke-miterlimit: 10;
      }

      .cls-2 {
        fill: #ccc;
      }

      .cls-3 {
        stroke: #000;
        stroke-width: 4px;
      }

      .cls-4, .cls-6 {
        fill: #0b89dd;
      }

      .cls-4 {
        stroke: #0b89dd;
        stroke-width: 2px;
      }

      .cls-7 {
        fill: #fff;
      }

      .cls-8 {
        fill: #fafafa;
      }
    </style>
  </defs>
  <title>grid3</title>
  <g id="Layer_2" data-name="Layer 2">
    <g id="grid">
      <line class="cls-1" x1="468.76" y1="508" x2="468.76" y2="4"/>
      <line class="cls-1" x1="496.76" y1="508" x2="496.76" y2="4"/>
      <line class="cls-1" x1="440.76" y1="508" x2="440.76" y2="4"/>
      <line class="cls-1" x1="412.76" y1="508" x2="412.76" y2="4"/>
      <line class="cls-1" x1="384.76" y1="508" x2="384.76" y2="4"/>
      <line class="cls-1" x1="356.76" y1="508" x2="356.76" y2="4"/>
      <line class="cls-1" x1="328.76" y1="508" x2="328.76" y2="4"/>
      <line class="cls-1" x1="300.76" y1="508" x2="300.76" y2="4"/>
      <line class="cls-1" x1="272.76" y1="508" x2="272.76" y2="4"/>
      <line class="cls-1" x1="244.76" y1="508" x2="244.76" y2="4"/>
      <line class="cls-1" x1="216.76" y1="508" x2="216.76" y2="4"/>
      <line class="cls-1" x1="188.76" y1="508" x2="188.76" y2="4"/>
      <line class="cls-1" x1="160.76" y1="508" x2="160.76" y2="4"/>
      <line class="cls-1" x1="132.76" y1="508" x2="132.76" y2="4"/>
      <line class="cls-1" x1="104.76" y1="508" x2="104.76" y2="4"/>
      <line class="cls-1" x1="76.76" y1="508" x2="76.76" y2="4"/>
      <line class="cls-1" x1="48.76" y1="508" x2="48.76" y2="4"/>
      <line class="cls-1" x1="20.76" y1="480" x2="524.76" y2="480"/>
      <line class="cls-1" x1="20.76" y1="452" x2="524.76" y2="452"/>
      <line class="cls-1" x1="20.76" y1="424" x2="524.76" y2="424"/>
      <line class="cls-1" x1="20.76" y1="396" x2="524.76" y2="396"/>
      <line class="cls-1" x1="20.76" y1="368" x2="524.76" y2="368"/>
      <line class="cls-1" x1="20.76" y1="340" x2="524.76" y2="340"/>
      <line class="cls-1" x1="20.76" y1="312" x2="524.76" y2="312"/>
      <line class="cls-1" x1="20.76" y1="284" x2="524.76" y2="284"/>
      <line class="cls-1" x1="20.76" y1="256" x2="524.76" y2="256"/>
      <line class="cls-1" x1="20.76" y1="228" x2="524.76" y2="228"/>
      <line class="cls-1" x1="20.76" y1="200" x2="524.76" y2="200"/>
      <line class="cls-1" x1="20.76" y1="172" x2="524.76" y2="172"/>
      <line class="cls-1" x1="20.76" y1="144" x2="524.76" y2="144"/>
      <line class="cls-1" x1="20.76" y1="116" x2="524.76" y2="116"/>
      <line class="cls-1" x1="20.76" y1="88" x2="524.76" y2="88"/>
      <line class="cls-1" x1="20.76" y1="60" x2="524.76" y2="60"/>
      <line class="cls-1" x1="20.76" y1="32" x2="524.76" y2="32"/>
    </g>
    <g id="shape">
      <path class="cls-2" d="M524.76,4V508h-504V4h504m0-4h-504a4,4,0,0,0-4,4V508a4,4,0,0,0,4,4h504a4,4,0,0,0,4-4V4a4,4,0,0,0-4-4Z"/>
      <line class="cls-3" x1="526.76" y1="508" x2="526.76" y2="4"/>
    </g>
    <g id="buttons">
      <g>
        <path class="cls-4" d="M337.06,527.16a14.37,14.37,0,0,1,8.13,7.45l5.41-2.52-3.7,10.14-10.15-3.69,5.18-2.41a10.8,10.8,0,1,0-19.27,9.73l-3.16,1.72a14.4,14.4,0,0,1,17.56-20.42Z"/>
        <rect class="cls-5" x="312.76" y="519" width="40" height="40" transform="translate(665.51 1078) rotate(-180)"/>
      </g>
      <g>
        <path class="cls-4" d="M208.45,527.16a14.37,14.37,0,0,0-8.13,7.45l-5.41-2.52,3.7,10.14,10.15-3.69-5.18-2.41a10.8,10.8,0,1,1,19.27,9.73l3.16,1.72a14.4,14.4,0,0,0-17.56-20.42Z"/>
        <rect class="cls-5" x="192.76" y="519" width="40" height="40"/>
      </g>
      <g>
        <g>
          <circle class="cls-6" cx="21" cy="511.77" r="19.5"/>
          <path class="cls-7" d="M21,493.77a18,18,0,1,1-18,18,18,18,0,0,1,18-18m0-3a21,21,0,1,0,21,21,21,21,0,0,0-21-21Z"/>
        </g>
        <path class="cls-8" d="M19.2,514l3-1.48,10.42-10.42-1.49-1.49L20.69,511ZM17,519.23a5.67,5.67,0,0,0-3.08-3.08l2.31-6.34,3-1.81,8.93-8.93H23.66L14.73,508l-4.46,14.88,14.88-4.46,8.93-8.93V505L25.15,514l-1.81,3Z"/>
      </g>
    </g>
  </g>
</svg>
