<svg xmlns="http://www.w3.org/2000/svg" xmlns:xlink="http://www.w3.org/1999/xlink" viewBox="0 0 146 44"><defs><clipPath id="clip-path" transform="translate(0 -4)"><rect width="146" height="48" style="fill:none"/></clipPath></defs><g id="Layer_2" data-name="Layer 2"><g id="buttons"><g id="最初に戻る"><g style="clip-path:url(#clip-path)"><g style="clip-path:url(#clip-path)"><path d="M132,48H14A14,14,0,0,1,0,34V18A14,14,0,0,1,14,4H132a14,14,0,0,1,14,14V34a14,14,0,0,1-14,14" transform="translate(0 -4)" style="fill:#ccc"/><path d="M132,4H14A14,14,0,0,0,0,18V34A14,14,0,0,0,14,48H132a14,14,0,0,0,14-14V18A14,14,0,0,0,132,4" transform="translate(0 -4)" style="fill:#0b89dd"/></g><g style="clip-path:url(#clip-path)"><path d="M26.1,21.59A6.5,6.5,0,1,1,18.5,28" transform="translate(0 -4)" style="fill:none;stroke:#fafafa;stroke-miterlimit:10;stroke-width:3px"/><polygon points="26.68 22.55 19.3 16.44 28.28 13.11 26.68 22.55" style="fill:#fafafa"/></g><text transform="translate(39.5 28.98)" style="font-size:18px;fill:#fafafa;font-family:rounded-l-mplus-1c-medium, "Rounded-L M+ 1c";font-weight:500">最初に戻る</text></g></g></g></g></svg>