<svg xmlns="http://www.w3.org/2000/svg" xmlns:xlink="http://www.w3.org/1999/xlink" viewBox="0 0 146 44"><defs><clipPath id="clip-path" transform="translate(0 -4)"><rect width="146" height="48" style="fill:none"/></clipPath></defs><g id="Layer_2" data-name="Layer 2"><g id="buttons"><g id="最初に戻る"><g style="clip-path:url(#clip-path)"><g style="clip-path:url(#clip-path)"><path d="M132,48H14A14,14,0,0,1,0,34V18A14,14,0,0,1,14,4H132a14,14,0,0,1,14,14V34a14,14,0,0,1-14,14" transform="translate(0 -4)" style="fill:#ccc"/><path d="M132,4H14A14,14,0,0,0,0,18V34A14,14,0,0,0,14,48H132a14,14,0,0,0,14-14V18A14,14,0,0,0,132,4" transform="translate(0 -4)" style="fill:#0b89dd"/><path d="M32.8,23.49,24,19.08l-8.82,4.41L24,27.9ZM31,25.91l1.77.89L24,31.21,15.16,26.8l1.76-.89L24,29.44Zm0,3.31,1.77.88L24,34.51,15.16,30.1l1.76-.88L24,32.75Z" transform="translate(0 -4)" style="fill:#fafafa"/></g><text transform="translate(39.5 28.98)" style="font-size:18px;fill:#fafafa;font-family:rounded-l-mplus-1c-medium, "Rounded-L M+ 1c";font-weight:500">一覧を表示</text></g></g></g></g></svg>