<svg xmlns="http://www.w3.org/2000/svg" viewBox="0 0 100 27"><g id="Layer_2" data-name="Layer 2"><g id="buttons"><rect width="100" height="27" style="fill:none"/><text transform="translate(40 20.48)" style="font-size:18px;font-family:rounded-mplus-1p-medium, "Rounded M+ 1p";font-weight:500">格子線</text><path d="M22,3.26a2,2,0,0,1,2,2V21.74a2,2,0,0,1-2,2H5a2,2,0,0,1-2-2V5.26a2,2,0,0,1,2-2H22m0-3H5a5,5,0,0,0-5,5V21.74a5,5,0,0,0,5,5H22a5,5,0,0,0,5-5V5.26a5,5,0,0,0-5-5Z" style="fill:#0b89dd"/></g></g></svg>