<svg xmlns="http://www.w3.org/2000/svg" xmlns:xlink="http://www.w3.org/1999/xlink" viewBox="0 0 1024 648"><defs><clipPath id="clip-path"><rect x="59.88" y="34" width="146" height="48" style="fill:none"/></clipPath><clipPath id="clip-path-3"><rect x="310" y="571" width="146" height="48" style="fill:none"/></clipPath><clipPath id="clip-path-6"><rect x="310" y="497" width="146" height="48" style="fill:none"/></clipPath></defs><g id="shape"><polyline points="272 405.39 98.65 405.39 98.65 166 272 166" style="fill:#bfe4ff;stroke:#005aff;stroke-linejoin:round;stroke-width:2px"/><line x1="272" y1="485" x2="272" y2="85" style="fill:none;stroke:#000;stroke-miterlimit:10;stroke-width:2px"/></g><g id="buttons"><g id="最初に戻る"><g style="clip-path:url(#clip-path)"><g style="clip-path:url(#clip-path)"><path d="M191.88,82h-118a14,14,0,0,1-14-14V52a14,14,0,0,1,14-14h118a14,14,0,0,1,14,14V68a14,14,0,0,1-14,14" style="fill:#ccc"/><rect x="61.38" y="35.5" width="143" height="41" rx="12.5" style="fill:#fafafa"/><path d="M191.88,37a11,11,0,0,1,11,11V64a11,11,0,0,1-11,11h-118a11,11,0,0,1-11-11V48a11,11,0,0,1,11-11h118m0-3h-118a14,14,0,0,0-14,14V64a14,14,0,0,0,14,14h118a14,14,0,0,0,14-14V48a14,14,0,0,0-14-14Z" style="fill:#0b89dd"/><path d="M92.67,53l-8.82-4.41L75,53l8.82,4.41Zm-1.76,2.43,1.76.88L83.85,60.7,75,56.29l1.77-.88,7,3.52Zm0,3.3,1.76.89L83.85,64,75,59.6l1.77-.89,7,3.53Z" style="fill:#0b89dd"/></g><text transform="translate(99.38 62.98)" style="font-size:18px;fill:#0b89dd;font-family:rounded-l-mplus-1c-medium, "Rounded-L M+ 1c";font-weight:500">一覧を表示</text></g></g><g id="最初に戻る-2" data-name="最初に戻る"><g style="clip-path:url(#clip-path-3)"><g style="clip-path:url(#clip-path-3)"><path d="M442,619H324a14,14,0,0,1-14-14V589a14,14,0,0,1,14-14H442a14,14,0,0,1,14,14v16a14,14,0,0,1-14,14" style="fill:#ccc"/><rect x="311.5" y="572.5" width="143" height="41" rx="12.5" style="fill:#fafafa"/><path d="M442,574a11,11,0,0,1,11,11v16a11,11,0,0,1-11,11H324a11,11,0,0,1-11-11V585a11,11,0,0,1,11-11H442m0-3H324a14,14,0,0,0-14,14v16a14,14,0,0,0,14,14H442a14,14,0,0,0,14-14V585a14,14,0,0,0-14-14Z" style="fill:#0b89dd"/></g><g style="clip-path:url(#clip-path-3)"><path d="M336.1,588.59a6.5,6.5,0,1,1-7.6,6.41" style="fill:none;stroke:#0b89dd;stroke-miterlimit:10;stroke-width:3px"/><polygon points="336.68 593.55 329.31 587.44 338.28 584.11 336.68 593.55" style="fill:#0b89dd"/></g><text transform="translate(349.5 599.98)" style="font-size:18px;fill:#0b89dd;font-family:rounded-l-mplus-1c-medium, "Rounded-L M+ 1c";font-weight:500">最初に戻る</text></g></g><path d="M153.5,500A10.5,10.5,0,1,1,143,510.5,10.51,10.51,0,0,1,153.5,500m0-3A13.5,13.5,0,1,0,167,510.5,13.49,13.49,0,0,0,153.5,497Z" style="fill:#0b89dd"/><circle cx="153.5" cy="510.5" r="5.63" style="fill:#0b89dd"/><polygon points="260 522 140 524 140 497 260 495 260 522" style="fill:none"/><text transform="translate(179 517.48)" style="font-size:18px;font-family:rounded-l-mplus-1c-medium, "Rounded-L M+ 1c";font-weight:500">四方向</text><path d="M153.5,545A10.5,10.5,0,1,1,143,555.5,10.51,10.51,0,0,1,153.5,545m0-3A13.5,13.5,0,1,0,167,555.5,13.49,13.49,0,0,0,153.5,542Z" style="fill:#0b89dd"/><rect x="140" y="542" width="120" height="27" style="fill:none"/><text transform="translate(179 562.48)" style="font-size:18px;font-family:rounded-l-mplus-1c-medium, "Rounded-L M+ 1c";font-weight:500">ゆっくり</text><path d="M153.5,590A10.5,10.5,0,1,1,143,600.5,10.51,10.51,0,0,1,153.5,590m0-3A13.5,13.5,0,1,0,167,600.5,13.49,13.49,0,0,0,153.5,587Z" style="fill:#0b89dd"/><rect x="140" y="587" width="120" height="27" style="fill:none"/><text transform="translate(179 607.48)" style="font-size:18px;font-family:rounded-l-mplus-1c-medium, "Rounded-L M+ 1c";font-weight:500">高速</text><rect x="700" y="535" width="130" height="27" style="fill:none"/><text transform="translate(740 555.48)" style="font-size:18px;font-family:rounded-mplus-1p-medium, "Rounded M+ 1p";font-weight:500">立体を表示</text><path d="M722,538.26a2,2,0,0,1,2,2v16.48a2,2,0,0,1-2,2H705a2,2,0,0,1-2-2V540.26a2,2,0,0,1,2-2h17m0-3H705a5,5,0,0,0-5,5v16.48a5,5,0,0,0,5,5h17a5,5,0,0,0,5-5V540.26a5,5,0,0,0-5-5Z" style="fill:#0b89dd"/><polyline points="706.45 544.6 711.28 552.6 721.09 542.15" style="fill:none;stroke:#fff;stroke-miterlimit:10;stroke-width:4px"/><g id="再開"><g style="clip-path:url(#clip-path-6)"><g style="clip-path:url(#clip-path-6)"><path d="M442,545H324a14,14,0,0,1-14-14V515a14,14,0,0,1,14-14H442a14,14,0,0,1,14,14v16a14,14,0,0,1-14,14" style="fill:#ccc"/><rect x="311.5" y="498.5" width="143" height="41" rx="12.5" style="fill:#fafafa"/><path d="M442,500a11,11,0,0,1,11,11v16a11,11,0,0,1-11,11H324a11,11,0,0,1-11-11V511a11,11,0,0,1,11-11H442m0-3H324a14,14,0,0,0-14,14v16a14,14,0,0,0,14,14H442a14,14,0,0,0,14-14V511a14,14,0,0,0-14-14Z" style="fill:#0b89dd"/></g><g style="clip-path:url(#clip-path-6)"><polygon points="329.5 526 329.5 512 344.5 519 329.5 526" style="fill:#0b89dd"/></g><text transform="translate(368 525.98)" style="font-size:18px;fill:#0b89dd;font-family:rounded-l-mplus-1c-medium, "Rounded-L M+ 1c";font-weight:500"><tspan style="letter-spacing:0.22200520833333334em">開</tspan><tspan x="22" y="0">始</tspan></text></g></g></g></svg>