<svg xmlns="http://www.w3.org/2000/svg" xmlns:xlink="http://www.w3.org/1999/xlink" width="100" height="40" viewBox="0 0 100 40">
  <defs>
    <style>
      .cls-1 {
        fill: none;
      }

      .cls-2 {
        clip-path: url(#clip-path);
      }

      .cls-3 {
        fill: #0b89dd;
      }

      .cls-4, .cls-5 {
        fill: #fff;
      }

      .cls-5 {
        font-size: 18px;
        font-family: rounded-l-mplus-1c-medium, rounded l-mplus-1c-medium;
        font-weight: 500;
      }
    </style>
    <clipPath id="clip-path" transform="translate(0 -4)">
      <rect class="cls-1" width="100" height="44"/>
    </clipPath>
  </defs>
  <title>btn-back-to-draw-inactive</title>
  <g id="Layer_2" data-name="Layer 2">
    <g id="buttons">
      <g class="cls-2">
        <path class="cls-3" d="M100,24A20.06,20.06,0,0,1,80,44H20A20.06,20.06,0,0,1,0,24H0A20.06,20.06,0,0,1,20,4H80a20.06,20.06,0,0,1,20,20Z" transform="translate(0 -4)"/>
        <g>
          <polygon class="cls-4" points="23.34 23.05 26.32 21.57 36.74 11.15 35.25 9.66 24.83 20.08 23.34 23.05"/>
          <path class="cls-4" d="M14.41,36,29.3,31.52l8.93-8.93V18.12L29.3,27.06l-1.81,3-6.35,2.31a5.64,5.64,0,0,0-3.08-3.08l2.31-6.35,3-1.81,8.93-8.93H27.81L18.88,21.1,14.41,36" transform="translate(0 -4)"/>
        </g>
        <text class="cls-5" transform="translate(46.17 26.15)">編集</text>
      </g>
    </g>
  </g>
</svg>
