<svg xmlns="http://www.w3.org/2000/svg" width="359.26" height="531.27" viewBox="0 0 359.26 531.27">
  <defs>
    <style>
      .cls-1, .cls-3 {
        fill: none;
      }

      .cls-1 {
        stroke: #4dc4ff;
      }

      .cls-1, .cls-3, .cls-4 {
        stroke-miterlimit: 10;
      }

      .cls-2 {
        fill: #ccc;
      }

      .cls-3 {
        stroke: #000;
        stroke-width: 4px;
      }

      .cls-4 {
        fill: #0b89dd;
        stroke: #fff;
        stroke-width: 3px;
      }

      .cls-5 {
        fill: #fafafa;
      }
    </style>
  </defs>
  <title>new_grid</title>
  <g id="Layer_2" data-name="Layer 2">
    <g id="grid">
      <line class="cls-1" x1="299.26" y1="508" x2="299.26" y2="4"/>
      <line class="cls-1" x1="327.26" y1="508" x2="327.26" y2="4"/>
      <line class="cls-1" x1="271.26" y1="508" x2="271.26" y2="4"/>
      <line class="cls-1" x1="243.26" y1="508" x2="243.26" y2="4"/>
      <line class="cls-1" x1="215.26" y1="508" x2="215.26" y2="4"/>
      <line class="cls-1" x1="187.26" y1="508" x2="187.26" y2="4"/>
      <line class="cls-1" x1="159.26" y1="508" x2="159.26" y2="4"/>
      <line class="cls-1" x1="131.26" y1="508" x2="131.26" y2="4"/>
      <line class="cls-1" x1="103.26" y1="508" x2="103.26" y2="4"/>
      <line class="cls-1" x1="75.26" y1="508" x2="75.26" y2="4"/>
      <line class="cls-1" x1="47.26" y1="508" x2="47.26" y2="4"/>
      <line class="cls-1" x1="19.26" y1="508" x2="19.26" y2="4"/>
      <line class="cls-1" x1="19.26" y1="480" x2="355.26" y2="480"/>
      <line class="cls-1" x1="19.26" y1="452" x2="355.26" y2="452"/>
      <line class="cls-1" x1="19.26" y1="424" x2="355.26" y2="424"/>
      <line class="cls-1" x1="19.26" y1="396" x2="355.26" y2="396"/>
      <line class="cls-1" x1="19.26" y1="368" x2="355.26" y2="368"/>
      <line class="cls-1" x1="19.26" y1="340" x2="355.26" y2="340"/>
      <line class="cls-1" x1="19.26" y1="312" x2="355.26" y2="312"/>
      <line class="cls-1" x1="19.26" y1="284" x2="355.26" y2="284"/>
      <line class="cls-1" x1="19.26" y1="256" x2="355.26" y2="256"/>
      <line class="cls-1" x1="19.26" y1="228" x2="355.26" y2="228"/>
      <line class="cls-1" x1="19.26" y1="200" x2="355.26" y2="200"/>
      <line class="cls-1" x1="19.26" y1="172" x2="355.26" y2="172"/>
      <line class="cls-1" x1="19.26" y1="144" x2="355.26" y2="144"/>
      <line class="cls-1" x1="19.26" y1="116" x2="355.26" y2="116"/>
      <line class="cls-1" x1="19.26" y1="88" x2="355.26" y2="88"/>
      <line class="cls-1" x1="19.26" y1="60" x2="355.26" y2="60"/>
      <line class="cls-1" x1="19.26" y1="32" x2="355.26" y2="32"/>
    </g>
    <g id="shape">
      <path class="cls-2" d="M355.26,4V508h-336V4h336m0-4h-336a4,4,0,0,0-4,4V508a4,4,0,0,0,4,4h336a4,4,0,0,0,4-4V4a4,4,0,0,0-4-4Z"/>
      <line class="cls-3" x1="357.26" y1="508" x2="357.26" y2="4"/>
    </g>
    <g id="buttons">
      <path class="cls-4" d="M19.5,529.77a18,18,0,1,1,18-18,18,18,0,0,1-18,18"/>
      <polygon class="cls-5" points="17.7 513.95 20.67 512.47 31.09 502.05 29.6 500.56 19.18 510.98 17.7 513.95"/>
      <path class="cls-5" d="M8.77,522.88l14.88-4.46,8.93-8.93V505L23.65,514l-1.81,3-6.35,2.3a5.67,5.67,0,0,0-3.08-3.08l2.31-6.34,3-1.81,8.93-8.93H22.16L13.23,508,8.77,522.88"/>
    </g>
  </g>
</svg>
