<svg xmlns="http://www.w3.org/2000/svg" xmlns:xlink="http://www.w3.org/1999/xlink" viewBox="0 0 450 32"><defs><style>.cls-1{fill:#fff766;}.cls-2{fill:#ffca80;mix-blend-mode:multiply;}.cls-3{font-size:18px;font-family:rounded-mplus-1p-medium, "Rounded M+ 1p";font-weight:500;}.cls-4{letter-spacing:0.25em;}.cls-5{fill:none;stroke:#fafafa;stroke-miterlimit:10;}.cls-5,.cls-6{stroke-width:2px;}.cls-6{fill:#bfe4ff;stroke:#005aff;stroke-linejoin:round;}.cls-7{fill:#0b89dd;}.cls-8{fill:#fafafa;}</style><symbol id="toggle-left" data-name="toggle-left" viewBox="0 0 450 32"><g id="抽出トグル-invalid"><g id="抽出トグル-a-invalid"><rect class="cls-1" width="450" height="32" rx="10"/><path class="cls-2" d="M150,32H10A10,10,0,0,1,0,22V10A10,10,0,0,1,10,0H150Z"/><text class="cls-3" transform="translate(60.39 23.48)"><tspan class="cls-4">長方</tspan><tspan x="45" y="0">形</tspan></text><text class="cls-3" transform="translate(194.05 23.48)">直角三角形</text><text class="cls-3" transform="translate(343.27 23.48)">新しく作成</text></g><line class="cls-5" x1="300" x2="300" y2="32"/><line class="cls-5" x1="150" x2="150" y2="32"/></g><rect class="cls-6" x="30.28" y="7.16" width="12.8" height="17.68"/><polygon class="cls-6" points="178.91 24.84 166.11 24.84 178.91 7.16 178.91 24.84"/><circle class="cls-7" cx="326.96" cy="17.17" r="11"/><path class="cls-8" d="M325.86,18.5l1.82-.91,6.37-6.37-.91-.91-6.37,6.37Zm-1.34,3.23a3.48,3.48,0,0,0-1.89-1.88L324,16l1.82-1.11,5.46-5.45h-2.73l-5.46,5.45L320.4,24l9.1-2.73L335,15.77V13L329.5,18.5l-1.11,1.82Z"/></symbol></defs><g id="Layer_2" data-name="Layer 2"><g id="buttons"><use width="450" height="32" xlink:href="#toggle-left"/></g></g></svg>