<svg xmlns="http://www.w3.org/2000/svg" xmlns:xlink="http://www.w3.org/1999/xlink" viewBox="0 0 1024 648"><defs><clipPath id="clip-path"><rect x="59.88" y="34" width="146" height="48" style="fill:none"/></clipPath><clipPath id="clip-path-3"><rect x="818.12" y="571" width="146" height="48" style="fill:none"/></clipPath></defs><g id="grid"><line x1="708" y1="569" x2="708" y2="65" style="fill:none;stroke:#4dc4ff;stroke-miterlimit:10"/><line x1="736" y1="569" x2="736" y2="65" style="fill:none;stroke:#4dc4ff;stroke-miterlimit:10"/><line x1="680" y1="569" x2="680" y2="65" style="fill:none;stroke:#4dc4ff;stroke-miterlimit:10"/><line x1="652" y1="569" x2="652" y2="65" style="fill:none;stroke:#4dc4ff;stroke-miterlimit:10"/><line x1="624" y1="569" x2="624" y2="65" style="fill:none;stroke:#4dc4ff;stroke-miterlimit:10"/><line x1="596" y1="569" x2="596" y2="65" style="fill:none;stroke:#4dc4ff;stroke-miterlimit:10"/><line x1="568" y1="569" x2="568" y2="65" style="fill:none;stroke:#4dc4ff;stroke-miterlimit:10"/><line x1="540" y1="569" x2="540" y2="65" style="fill:none;stroke:#4dc4ff;stroke-miterlimit:10"/><line x1="512" y1="569" x2="512" y2="65" style="fill:none;stroke:#4dc4ff;stroke-miterlimit:10"/><line x1="484" y1="569" x2="484" y2="65" style="fill:none;stroke:#4dc4ff;stroke-miterlimit:10"/><line x1="456" y1="569" x2="456" y2="65" style="fill:none;stroke:#4dc4ff;stroke-miterlimit:10"/><line x1="428" y1="569" x2="428" y2="65" style="fill:none;stroke:#4dc4ff;stroke-miterlimit:10"/><line x1="400" y1="569" x2="400" y2="65" style="fill:none;stroke:#4dc4ff;stroke-miterlimit:10"/><line x1="372" y1="569" x2="372" y2="65" style="fill:none;stroke:#4dc4ff;stroke-miterlimit:10"/><line x1="344" y1="569" x2="344" y2="65" style="fill:none;stroke:#4dc4ff;stroke-miterlimit:10"/><line x1="316" y1="569" x2="316" y2="65" style="fill:none;stroke:#4dc4ff;stroke-miterlimit:10"/><line x1="288" y1="569" x2="288" y2="65" style="fill:none;stroke:#4dc4ff;stroke-miterlimit:10"/><line x1="260" y1="541" x2="764" y2="541" style="fill:none;stroke:#4dc4ff;stroke-miterlimit:10"/><line x1="260" y1="513" x2="764" y2="513" style="fill:none;stroke:#4dc4ff;stroke-miterlimit:10"/><line x1="260" y1="485" x2="764" y2="485" style="fill:none;stroke:#4dc4ff;stroke-miterlimit:10"/><line x1="260" y1="457" x2="764" y2="457" style="fill:none;stroke:#4dc4ff;stroke-miterlimit:10"/><line x1="260" y1="429" x2="764" y2="429" style="fill:none;stroke:#4dc4ff;stroke-miterlimit:10"/><line x1="260" y1="401" x2="764" y2="401" style="fill:none;stroke:#4dc4ff;stroke-miterlimit:10"/><line x1="260" y1="373" x2="764" y2="373" style="fill:none;stroke:#4dc4ff;stroke-miterlimit:10"/><line x1="260" y1="345" x2="764" y2="345" style="fill:none;stroke:#4dc4ff;stroke-miterlimit:10"/><line x1="260" y1="317" x2="764" y2="317" style="fill:none;stroke:#4dc4ff;stroke-miterlimit:10"/><line x1="260" y1="289" x2="764" y2="289" style="fill:none;stroke:#4dc4ff;stroke-miterlimit:10"/><line x1="260" y1="261" x2="764" y2="261" style="fill:none;stroke:#4dc4ff;stroke-miterlimit:10"/><line x1="260" y1="233" x2="764" y2="233" style="fill:none;stroke:#4dc4ff;stroke-miterlimit:10"/><line x1="260" y1="205" x2="764" y2="205" style="fill:none;stroke:#4dc4ff;stroke-miterlimit:10"/><line x1="260" y1="177" x2="764" y2="177" style="fill:none;stroke:#4dc4ff;stroke-miterlimit:10"/><line x1="260" y1="149" x2="764" y2="149" style="fill:none;stroke:#4dc4ff;stroke-miterlimit:10"/><line x1="260" y1="121" x2="764" y2="121" style="fill:none;stroke:#4dc4ff;stroke-miterlimit:10"/><line x1="260" y1="93" x2="764" y2="93" style="fill:none;stroke:#4dc4ff;stroke-miterlimit:10"/></g><g id="shape"><path d="M764,65V569H260V65H764m0-4H260a4,4,0,0,0-4,4V569a4,4,0,0,0,4,4H764a4,4,0,0,0,4-4V65a4,4,0,0,0-4-4Z" style="fill:#ccc"/><line x1="766" y1="569" x2="766" y2="65" style="fill:none;stroke:#000;stroke-miterlimit:10;stroke-width:4px"/></g><g id="buttons"><g id="最初に戻る"><g style="clip-path:url(#clip-path)"><g style="clip-path:url(#clip-path)"><path d="M191.88,82h-118a14,14,0,0,1-14-14V52a14,14,0,0,1,14-14h118a14,14,0,0,1,14,14V68a14,14,0,0,1-14,14" style="fill:#ccc"/><rect x="61.38" y="35.5" width="143" height="41" rx="12.5" style="fill:#fafafa"/><path d="M191.88,37a11,11,0,0,1,11,11V64a11,11,0,0,1-11,11h-118a11,11,0,0,1-11-11V48a11,11,0,0,1,11-11h118m0-3h-118a14,14,0,0,0-14,14V64a14,14,0,0,0,14,14h118a14,14,0,0,0,14-14V48a14,14,0,0,0-14-14Z" style="fill:#0b89dd"/><path d="M92.67,53l-8.82-4.41L75,53l8.82,4.41Zm-1.76,2.43,1.76.88L83.85,60.7,75,56.29l1.77-.88,7,3.52Zm0,3.3,1.76.89L83.85,64,75,59.6l1.77-.89,7,3.53Z" style="fill:#0b89dd"/></g><text transform="translate(99.38 62.98)" style="font-size:18px;fill:#0b89dd;font-family:rounded-l-mplus-1c-medium, "Rounded-L M+ 1c";font-weight:500">一覧を表示</text></g></g><polygon points="897.11 385.81 897.11 379.81 885.11 379.81 885.11 385.81 865.61 385.81 865.61 391.81 867.11 391.81 871.11 438.81 872.11 438.81 872.11 444.81 910.11 444.81 910.11 438.81 911.11 438.81 915.11 391.81 916.61 391.81 916.61 385.81 897.11 385.81" style="fill:#fafafa"/><rect x="885.11" y="379.8" width="12" height="6" style="fill:none;stroke:#0b89dd;stroke-linejoin:round;stroke-width:3px"/><rect x="865.61" y="385.8" width="51" height="6" style="fill:none;stroke:#0b89dd;stroke-linejoin:round;stroke-width:3px"/><polygon points="915.11 391.81 911.11 438.81 910.61 438.81 910.11 438.81 910.11 441.81 910.11 444.81 872.11 444.81 872.11 441.81 872.11 438.81 871.61 438.81 871.11 438.81 867.11 391.81 915.11 391.81" style="fill:none;stroke:#0b89dd;stroke-linejoin:round;stroke-width:3px"/><line x1="910.11" y1="438.8" x2="872.11" y2="438.8" style="fill:none;stroke:#0b89dd;stroke-linejoin:round"/><line x1="891.12" y1="432.03" x2="891.12" y2="400.03" style="fill:none;stroke:#0b89dd;stroke-linecap:round;stroke-linejoin:round"/><line x1="880.91" y1="432.05" x2="878.88" y2="400.05" style="fill:none;stroke:#0b89dd;stroke-linecap:round;stroke-linejoin:round"/><line x1="901.34" y1="432.05" x2="903.37" y2="400.05" style="fill:none;stroke:#0b89dd;stroke-linecap:round;stroke-linejoin:round"/><line x1="867.11" y1="391.8" x2="915.11" y2="391.8" style="fill:none;stroke:#0b89dd;stroke-linejoin:round;stroke-width:3px"/><rect x="841.12" y="500" width="100" height="27" style="fill:none"/><path d="M863.12,503.26a2,2,0,0,1,2,2v16.48a2,2,0,0,1-2,2h-17a2,2,0,0,1-2-2V505.26a2,2,0,0,1,2-2h17m0-3h-17a5,5,0,0,0-5,5v16.48a5,5,0,0,0,5,5h17a5,5,0,0,0,5-5V505.26a5,5,0,0,0-5-5Z" style="fill:#0b89dd"/><polyline points="847.57 509.6 852.4 517.6 862.22 507.15" style="fill:none;stroke:#0b89dd;stroke-miterlimit:10;stroke-width:4px"/><text transform="translate(881.12 520.48)" style="font-size:18px;font-family:rounded-mplus-1p-medium, "Rounded M+ 1p";font-weight:500">格子線</text><path d="M576.31,588.16a14.37,14.37,0,0,1,8.13,7.45l5.4-2.53-3.69,10.15L576,599.54l5.17-2.41a10.8,10.8,0,1,0-19.27,9.73l-3.16,1.72a14.4,14.4,0,0,1,17.57-20.42Z" style="fill:#b3b3b3;stroke:#b3b3b3;stroke-miterlimit:10;stroke-width:2px"/><rect x="552" y="580" width="40" height="40" transform="translate(1144 1200) rotate(-180)" style="fill:none"/><path d="M447.69,588.16a14.37,14.37,0,0,0-8.13,7.45l-5.4-2.53,3.69,10.15L448,599.54l-5.17-2.41a10.8,10.8,0,1,1,19.27,9.73l3.16,1.72a14.4,14.4,0,0,0-17.57-20.42Z" style="fill:#b3b3b3;stroke:#b3b3b3;stroke-miterlimit:10;stroke-width:2px"/><rect x="432" y="580" width="40" height="40" style="fill:none"/><g id="再開"><g style="clip-path:url(#clip-path-3)"><g style="clip-path:url(#clip-path-3)"><path d="M950.12,619h-118a14,14,0,0,1-14-14V589a14,14,0,0,1,14-14h118a14,14,0,0,1,14,14v16a14,14,0,0,1-14,14" style="fill:#ccc"/><rect x="819.62" y="572.5" width="143" height="41" rx="12.5" style="fill:#fafafa"/><path d="M950.12,574a11,11,0,0,1,11,11v16a11,11,0,0,1-11,11h-118a11,11,0,0,1-11-11V585a11,11,0,0,1,11-11h118m0-3h-118a14,14,0,0,0-14,14v16a14,14,0,0,0,14,14h118a14,14,0,0,0,14-14V585a14,14,0,0,0-14-14Z" style="fill:#0b89dd"/><path d="M851.34,587.65l-7.88,7.88-3.67-3.68-2.63,2.63,6.3,6.3,10.5-10.5Z" style="fill:#0b89dd"/></g><text transform="translate(876.12 599.98)" style="font-size:18px;fill:#0b89dd;font-family:rounded-l-mplus-1c-medium, "Rounded-L M+ 1c";font-weight:500;letter-spacing:0.22200520833333334em">決定</text></g></g><circle cx="260.24" cy="572.77" r="19.5" style="fill:#0b89dd"/><path d="M260.24,554.77a18,18,0,1,1-18,18,18,18,0,0,1,18-18m0-3a21,21,0,1,0,21,21,21,21,0,0,0-21-21Z" style="fill:#fff"/><path d="M258.44,575l3-1.48,10.42-10.42-1.49-1.49L259.93,572Zm-2.2,5.28a5.74,5.74,0,0,0-3.08-3.08l2.3-6.34,3-1.81,8.93-8.93h-4.46L254,569l-4.47,14.88,14.88-4.46,8.93-8.93V566L264.39,575l-1.81,3Z" style="fill:#fafafa"/></g></svg>