<svg xmlns="http://www.w3.org/2000/svg" xmlns:xlink="http://www.w3.org/1999/xlink" viewBox="0 0 145.1 47.7"><defs><clipPath id="clip-path"><rect width="145.1" height="47.7" style="fill:none"/></clipPath></defs><title>btn-open-disabled</title><g id="Layer_2" data-name="Layer 2"><g id="buttons"><g id="展開_無効" data-name="展開　無効"><g style="clip-path:url(#clip-path)"><g style="clip-path:url(#clip-path)"><path d="M131.18,47.7H13.91A13.91,13.91,0,0,1,0,33.79V17.89A13.91,13.91,0,0,1,13.91,4H131.18A13.91,13.91,0,0,1,145.1,17.89v15.9A13.92,13.92,0,0,1,131.18,47.7" style="fill:#ccc"/><rect x="1.49" y="1.49" width="142.12" height="40.75" rx="12.42" style="fill:#f2f2f2"/><path d="M131.18,3a11,11,0,0,1,10.94,10.93v15.9a11,11,0,0,1-10.94,10.94H13.91A11,11,0,0,1,3,29.81V13.91A11,11,0,0,1,13.91,3H131.18m0-3H13.91A13.91,13.91,0,0,0,0,13.91v15.9A13.92,13.92,0,0,0,13.91,43.73H131.18A13.92,13.92,0,0,0,145.1,29.81V13.91A13.92,13.92,0,0,0,131.18,0" style="fill:#b3b3b3"/></g><text transform="translate(45.72 29.3)" style="font-size:17.888769149780273px;fill:#b3b3b3;font-family:rounded-mplus-1p-medium, rounded mplus-1p-medium;font-weight:500"><tspan style="letter-spacing:0.999994562242966em">展</tspan><tspan x="35.78" y="0">開</tspan></text></g></g></g></g></svg>