<svg xmlns="http://www.w3.org/2000/svg" xmlns:xlink="http://www.w3.org/1999/xlink" viewBox="0 0 146 48"><defs><clipPath id="clip-path"><rect width="146" height="48" style="fill:none"/></clipPath></defs><title>btn-open-inactive</title><g id="Layer_2" data-name="Layer 2"><g id="buttons"><g id="展開"><g style="clip-path:url(#clip-path)"><g style="clip-path:url(#clip-path)"><path d="M132,48H14A14,14,0,0,1,0,34V18A14,14,0,0,1,14,4H132a14,14,0,0,1,14,14V34a14,14,0,0,1-14,14" style="fill:#ccc"/><rect x="1.5" y="1.5" width="143" height="41" rx="12.5" style="fill:#fafafa"/><path d="M132,3a11,11,0,0,1,11,11V30a11,11,0,0,1-11,11H14A11,11,0,0,1,3,30V14A11,11,0,0,1,14,3H132m0-3H14A14,14,0,0,0,0,14V30A14,14,0,0,0,14,44H132a14,14,0,0,0,14-14V14A14,14,0,0,0,132,0" style="fill:#0b89dd"/></g><text transform="translate(46.02 29.48)" style="font-size:18px;fill:#0b89dd;font-family:rounded-mplus-1p-medium, rounded mplus-1p-medium;font-weight:500"><tspan style="letter-spacing:1em">展</tspan><tspan x="36" y="0">開</tspan></text></g></g></g></g></svg>