<svg xmlns="http://www.w3.org/2000/svg" xmlns:xlink="http://www.w3.org/1999/xlink" viewBox="0 0 146 48"><defs><clipPath id="clip-path" transform="translate(0 0)"><rect width="146" height="48" style="fill:none"/></clipPath></defs><g id="Layer_2" data-name="Layer 2"><g id="buttons"><g id="再開"><g style="clip-path:url(#clip-path)"><g style="clip-path:url(#clip-path)"><path d="M132,48H14A14,14,0,0,1,0,34V18A14,14,0,0,1,14,4H132a14,14,0,0,1,14,14V34a14,14,0,0,1-14,14" transform="translate(0 0)" style="fill:#ccc"/><rect x="1.5" y="1.5" width="143" height="41" rx="12.5" style="fill:#f2f2f2"/><path d="M132,3a11,11,0,0,1,11,11V30a11,11,0,0,1-11,11H14A11,11,0,0,1,3,30V14A11,11,0,0,1,14,3H132m0-3H14A14,14,0,0,0,0,14V30A14,14,0,0,0,14,44H132a14,14,0,0,0,14-14V14A14,14,0,0,0,132,0Z" transform="translate(0 0)" style="fill:#b3b3b3"/><path d="M33.21,16.65l-7.87,7.88-3.68-3.68L19,23.48l6.3,6.3,10.5-10.5Z" transform="translate(0 0)" style="fill:#b3b3b3"/></g><text transform="translate(58 28.98)" style="font-size:18px;fill:#b3b3b3;font-family:rounded-l-mplus-1c-medium, "Rounded-L M+ 1c";font-weight:500;letter-spacing:0.22200520833333334em">決定</text></g></g></g></g></svg>