<svg xmlns="http://www.w3.org/2000/svg" viewBox="0 0 54 68"><g id="Layer_2" data-name="Layer 2"><g id="buttons"><polygon points="33 7.5 33 1.5 21 1.5 21 7.5 1.5 7.5 1.5 13.5 3 13.5 7 60.5 8 60.5 8 66.5 46 66.5 46 60.5 47 60.5 51 13.5 52.5 13.5 52.5 7.5 33 7.5" style="fill:#fafafa"/><rect x="21" y="1.5" width="12" height="6" style="fill:none;stroke:#0b89dd;stroke-linejoin:round;stroke-width:3px"/><rect x="1.5" y="7.5" width="51" height="6" style="fill:none;stroke:#0b89dd;stroke-linejoin:round;stroke-width:3px"/><polygon points="51 13.5 47 60.5 46.5 60.5 46 60.5 46 63.5 46 66.5 8 66.5 8 63.5 8 60.5 7.5 60.5 7 60.5 3 13.5 51 13.5" style="fill:none;stroke:#0b89dd;stroke-linejoin:round;stroke-width:3px"/><line x1="46" y1="60.5" x2="8" y2="60.5" style="fill:none;stroke:#0b89dd;stroke-linejoin:round"/><line x1="27.02" y1="53.72" x2="27.02" y2="21.72" style="fill:none;stroke:#0b89dd;stroke-linecap:round;stroke-linejoin:round"/><line x1="16.8" y1="53.74" x2="14.77" y2="21.75" style="fill:none;stroke:#0b89dd;stroke-linecap:round;stroke-linejoin:round"/><line x1="37.23" y1="53.74" x2="39.26" y2="21.75" style="fill:none;stroke:#0b89dd;stroke-linecap:round;stroke-linejoin:round"/></g></g></svg>